<?xml version="1.0" encoding="utf-8"?>
<svg viewBox="0 0 500 500" xmlns="http://www.w3.org/2000/svg">
  <line style="stroke: rgb(0, 0, 0); stroke-width: 23px;" x1="117.412" y1="242.51" x2="466.555" y2="241.524"/>
  <line style="stroke: rgb(0, 0, 0); stroke-width: 23px;" x1="110.109" y1="248.011" x2="199.94" y2="117.864"/>
  <line style="stroke: rgb(0, 0, 0); stroke-width: 23px;" x1="111.17" y1="235.57" x2="205.896" y2="365.785"/>
  <line style="stroke: rgb(0, 0, 0); stroke-width: 23px;" x1="125.5929157531267" y1="240.4547525079054" x2="27.64755212583742" y2="240.8530756540845"/>
  <line style="stroke: rgb(0, 0, 0); stroke-width: 23px;" x1="145.67" y1="195.023" x2="47.725" y2="195.421"/>
  <line style="stroke: rgb(0, 0, 0); stroke-width: 23px;" x1="142.61" y1="282.233" x2="44.664" y2="282.631"/>
  <line style="stroke: rgb(0, 0, 0); stroke-width: 23px;" x1="174.702" y1="150.993" x2="76.756" y2="151.391"/>
  <line style="stroke: rgb(0, 0, 0); stroke-width: 23px;" x1="170.243" y1="324.102" x2="72.298" y2="324.5"/>
  <line style="stroke: rgb(0, 0, 0); stroke-width: 23px;" x1="209.538" y1="112.898" x2="111.592" y2="113.296"/>
  <line style="stroke: rgb(0, 0, 0); stroke-width: 23px;" x1="215.664" y1="370.699" x2="117.718" y2="371.097"/>
  <line style="stroke: rgb(0, 0, 0); stroke-width: 23px;" x1="203.24188185205048" y1="192.9488359814473" x2="205.06361379681493" y2="291.4246203802387"/>
  <line style="stroke: rgb(0, 0, 0); stroke-width: 23px;" x1="242.966" y1="193.333" x2="244.788" y2="291.809"/>
  <line style="stroke: rgb(0, 0, 0); stroke-width: 23px;" x1="281.76" y1="192.678" x2="283.582" y2="291.154"/>
  <line style="stroke: rgb(0, 0, 0); stroke-width: 23px;" x1="322.66" y1="192.383" x2="324.482" y2="290.858"/>
  <line style="stroke: rgb(0, 0, 0); stroke-width: 23px;" x1="364.211" y1="193.871" x2="366.033" y2="292.347"/>
  <line style="stroke: rgb(0, 0, 0); stroke-width: 23px;" x1="405.286" y1="192.981" x2="407.107" y2="291.457"/>
</svg>