<?xml version="1.0" encoding="utf-8"?>
<svg viewBox="0 0 500 500" xmlns="http://www.w3.org/2000/svg">
  <line style="stroke: rgb(0, 0, 0); stroke-width: 23px;" x1="27.648" y1="242.47" x2="376.791" y2="241.484" transform="matrix(-1, 0, 0, -1, 404.438976, 483.953995)"/>
  <line style="stroke: rgb(0, 0, 0); stroke-width: 23px;" x1="294.263" y1="366.131" x2="384.094" y2="235.984" transform="matrix(-1, 0, 0, -1, 678.356995, 602.115005)"/>
  <line style="stroke: rgb(0, 0, 0); stroke-width: 23px;" x1="288.307" y1="118.209" x2="383.033" y2="248.424" transform="matrix(-1, 0, 0, -1, 671.339996, 366.632996)"/>
  <line style="stroke: rgb(0, 0, 0); stroke-width: 23px;" x1="466.556" y1="243.141" x2="368.61" y2="243.54" transform="matrix(-1, 0, 0, -1, 835.165985, 486.681)"/>
  <line style="stroke: rgb(0, 0, 0); stroke-width: 23px;" x1="446.478" y1="288.573" x2="348.533" y2="288.971" transform="matrix(-1, 0, 0, -1, 795.010986, 577.544006)"/>
  <line style="stroke: rgb(0, 0, 0); stroke-width: 23px;" x1="449.539" y1="201.364" x2="351.593" y2="201.762" transform="matrix(-1, 0, 0, -1, 801.131989, 403.125992)"/>
  <line style="stroke: rgb(0, 0, 0); stroke-width: 23px;" x1="417.447" y1="332.604" x2="319.501" y2="333.002" transform="matrix(-1, 0, 0, -1, 736.947998, 665.606018)"/>
  <line style="stroke: rgb(0, 0, 0); stroke-width: 23px;" x1="421.904" y1="159.495" x2="323.959" y2="159.893" transform="matrix(-1, 0, 0, -1, 745.863007, 319.388)"/>
  <line style="stroke: rgb(0, 0, 0); stroke-width: 23px;" x1="382.611" y1="370.699" x2="284.665" y2="371.097" transform="matrix(-1, 0, 0, -1, 667.276001, 741.79599)"/>
  <line style="stroke: rgb(0, 0, 0); stroke-width: 23px;" x1="376.485" y1="112.898" x2="278.539" y2="113.296" transform="matrix(-1, 0, 0, -1, 655.023987, 226.194)"/>
  <line style="stroke: rgb(0, 0, 0); stroke-width: 23px;" x1="289.139" y1="192.57" x2="290.961" y2="291.046" transform="matrix(-1, 0, 0, -1, 580.100006, 483.615997)"/>
  <line style="stroke: rgb(0, 0, 0); stroke-width: 23px;" x1="249.415" y1="192.186" x2="251.237" y2="290.662" transform="matrix(-1, 0, 0, -1, 500.651993, 482.847992)"/>
  <line style="stroke: rgb(0, 0, 0); stroke-width: 23px;" x1="210.621" y1="192.841" x2="212.443" y2="291.317" transform="matrix(-1, 0, 0, -1, 423.063995, 484.15799)"/>
  <line style="stroke: rgb(0, 0, 0); stroke-width: 23px;" x1="169.72" y1="193.137" x2="171.542" y2="291.611" transform="matrix(-1, 0, 0, -1, 341.262009, 484.747986)"/>
  <line style="stroke: rgb(0, 0, 0); stroke-width: 23px;" x1="128.17" y1="191.648" x2="129.992" y2="290.124" transform="matrix(-1, 0, 0, -1, 258.162003, 481.771988)"/>
  <line style="stroke: rgb(0, 0, 0); stroke-width: 23px;" x1="87.096" y1="192.537" x2="88.917" y2="291.013" transform="matrix(-1, 0, 0, -1, 176.013, 483.550003)"/>
</svg>